<svg version="1.1" xmlns="http://www.w3.org/2000/svg" viewBox="0 0 80.6851985557114 99.51810001541824" width="80.6851985557114" height="99.51810001541824" class="excalidraw-svg"><!-- svg-source:excalidraw --><metadata></metadata><defs><style class="style-fonts">
      </style></defs><g stroke-linecap="round"><g transform="translate(6.176172541146627 29.492206334215098) rotate(10.249525126739766 7.98516513771375 26.25404206809924)"><path d="M-1.13 -0.76 C1.54 8.1, 14.46 43.37, 17.12 52.3 M0.48 1.45 C2.99 10.58, 13.99 44.92, 16.77 53.72" stroke="#1e1e1e" stroke-width="4" fill="none"></path></g></g><mask></mask><g stroke-linecap="round"><g transform="translate(17.590235883180924 85.43471509186293) rotate(10.249525126739766 15.118040422480448 0.6748026876941822)"><path d="M0.52 -0.1 C5.56 0.21, 24.7 1.26, 29.71 1.48 M0.13 -0.62 C5.37 -0.46, 25.62 0.19, 30.68 0.58" stroke="#1e1e1e" stroke-width="4" fill="none"></path></g></g><mask></mask><g stroke-linecap="round"><g transform="translate(51.982659949636 91.03323945596935) rotate(10.249525126739766 6.661919242313559 -25.791872518975538)"><path d="M-1.14 0.29 C1.03 -8.32, 11.69 -43.41, 14.18 -51.9 M0.46 -0.6 C2.45 -9.02, 11.55 -41.89, 13.68 -50.52" stroke="#1e1e1e" stroke-width="4" fill="none"></path></g></g><mask></mask><g stroke-linecap="round"><g transform="translate(9.464143666319671 34.55292874735346) rotate(10.249525126739766 29.241449800078442 6.103098266566803)"><path d="M0.85 -0.31 C6.04 1.84, 20.45 13.18, 29.97 13.19 C39.5 13.2, 53.39 1.86, 58.02 -0.25 M-0.16 -1.52 C5.01 0.28, 19.73 11.23, 29.25 11.58 C38.78 11.93, 52.29 2.26, 57.01 0.58" stroke="#1e1e1e" stroke-width="4" fill="none"></path></g></g><mask></mask><g transform="translate(20.212332849294455 34.11970197893129) rotate(0 22.105169047206516 -8.425031955414738)" stroke="none"><path fill="#1e1e1e" d="M -2.61,0 Q -2.61,0 -2.65,-0.77 -2.69,-1.54 -2.70,-3.11 -2.71,-4.67 -2.55,-5.98 -2.38,-7.29 -2.12,-8.69 -1.85,-10.10 -1.54,-11.40 -1.22,-12.69 -0.91,-14.02 -0.60,-15.35 0.10,-16.33 0.80,-17.31 1.70,-18.40 2.61,-19.50 3.40,-20.23 4.18,-20.96 5.05,-21.74 5.92,-22.51 6.90,-23.19 7.87,-23.88 9.17,-24.67 10.48,-25.47 11.67,-25.98 12.86,-26.49 13.93,-26.71 15.01,-26.93 16.58,-27.21 18.15,-27.49 19.45,-27.64 20.75,-27.78 22.03,-27.81 23.31,-27.84 24.51,-27.74 25.70,-27.65 27.01,-27.33 28.33,-27.01 29.55,-26.69 30.78,-26.37 32.26,-26.03 33.75,-25.68 34.81,-25.43 35.87,-25.17 36.95,-24.72 38.03,-24.28 39.41,-23.25 40.78,-22.21 41.86,-21.56 42.93,-20.91 43.75,-20.22 44.58,-19.52 45.29,-18.57 46.00,-17.62 46.47,-16.41 46.94,-15.21 47.32,-14.11 47.70,-13.02 47.84,-11.91 47.98,-10.80 47.99,-9.60 48.00,-8.41 47.75,-6.82 47.50,-5.22 47.15,-3.82 46.81,-2.41 46.30,-1.18 45.78,0.04 45.24,1.36 44.69,2.68 44.16,4.20 43.63,5.72 42.90,6.89 42.17,8.07 41.99,8.50 41.82,8.94 41.55,9.31 41.27,9.69 40.92,10.00 40.56,10.30 40.14,10.51 39.73,10.72 39.27,10.82 38.82,10.93 38.35,10.92 37.88,10.91 37.43,10.79 36.98,10.67 36.57,10.44 36.16,10.22 35.81,9.90 35.47,9.58 35.21,9.19 34.95,8.81 34.80,8.37 34.64,7.93 34.59,7.46 34.54,7.00 34.61,6.53 34.67,6.07 34.72,7.22 34.77,8.37 34.66,7.76 34.54,7.14 34.63,6.52 34.72,5.90 35.01,5.34 35.29,4.78 35.74,4.34 36.19,3.90 36.75,3.63 37.32,3.35 37.94,3.27 38.56,3.19 39.17,3.32 39.79,3.44 40.33,3.76 40.88,4.07 41.29,4.54 41.71,5.01 41.95,5.59 42.19,6.17 42.24,6.79 42.28,7.42 42.12,8.03 41.97,8.63 41.63,9.16 41.28,9.68 40.79,10.07 40.30,10.46 39.71,10.67 39.12,10.88 38.49,10.89 37.86,10.91 37.26,10.72 36.67,10.53 36.16,10.16 35.65,9.79 35.29,9.27 34.93,8.76 34.75,8.16 34.57,7.56 34.60,6.93 34.62,6.30 34.84,5.72 35.06,5.13 35.46,4.65 35.86,4.16 36.39,3.83 36.92,3.49 37.53,3.35 38.14,3.20 38.77,3.26 39.39,3.32 39.96,3.57 40.54,3.82 41.00,4.24 41.46,4.67 41.82,6.37 42.17,8.07 41.99,8.50 41.82,8.93 41.55,9.31 41.27,9.69 40.92,10.00 40.56,10.30 40.14,10.51 39.73,10.72 39.27,10.82 38.82,10.93 38.35,10.92 37.88,10.91 37.43,10.79 36.98,10.67 36.57,10.44 36.16,10.22 35.81,9.90 35.47,9.58 35.21,9.20 34.95,8.81 34.80,8.37 34.64,7.93 34.59,7.46 34.54,7.00 34.61,6.53 34.67,6.07 35.87,3.90 37.06,1.73 37.48,0.54 37.90,-0.64 38.44,-1.90 38.99,-3.17 39.38,-4.24 39.77,-5.30 40.01,-6.48 40.24,-7.65 40.33,-8.73 40.41,-9.82 40.26,-10.90 40.12,-11.99 39.68,-13.12 39.24,-14.25 38.33,-14.93 37.42,-15.61 36.49,-16.41 35.56,-17.21 34.55,-17.65 33.54,-18.09 32.32,-18.39 31.10,-18.70 29.48,-19.11 27.85,-19.52 26.36,-19.84 24.88,-20.17 23.66,-20.29 22.44,-20.40 21.25,-20.38 20.06,-20.37 18.75,-20.15 17.43,-19.93 16.29,-19.73 15.15,-19.52 14.04,-19.02 12.94,-18.52 12.04,-17.95 11.14,-17.38 10.22,-16.68 9.30,-15.98 8.20,-15.01 7.10,-14.03 6.16,-12.82 5.22,-11.60 4.75,-9.95 4.27,-8.31 3.97,-7.25 3.66,-6.18 3.31,-4.92 2.96,-3.65 2.83,-2.59 2.69,-1.54 2.65,-0.77 2.61,0 2.57,0.31 2.53,0.62 2.42,0.92 2.31,1.21 2.13,1.47 1.95,1.73 1.72,1.94 1.48,2.15 1.20,2.29 0.92,2.44 0.62,2.52 0.31,2.59 -0.00,2.59 -0.31,2.59 -0.62,2.52 -0.92,2.44 -1.20,2.29 -1.48,2.15 -1.72,1.94 -1.95,1.73 -2.13,1.47 -2.31,1.21 -2.42,0.92 -2.53,0.62 -2.57,0.31 -2.61,-0.00 -2.61,-0.00 L -2.61,0 Z"></path></g><g stroke-linecap="round" transform="translate(42.590865418792845 59.25265173273817) rotate(304.63476419903463 1.9185361235074936 2.441685134767326)"><path d="M1.89 0 C2.28 -0.06, 2.85 0.1, 3.23 0.48 C3.61 0.86, 4.1 1.66, 4.16 2.27 C4.22 2.88, 3.95 3.76, 3.6 4.14 C3.25 4.52, 2.51 4.47, 2.05 4.57 C1.58 4.67, 1.09 4.92, 0.8 4.73 C0.51 4.54, 0.46 3.93, 0.31 3.44 C0.16 2.95, -0.19 2.32, -0.1 1.79 C-0.02 1.26, 0.42 0.6, 0.81 0.25 C1.21 -0.09, 2.03 -0.2, 2.25 -0.28 C2.48 -0.35, 2.15 -0.3, 2.18 -0.19 M1.24 -0.16 C1.69 -0.33, 2.64 -0.08, 3.1 0.21 C3.56 0.5, 3.92 1.14, 4.02 1.6 C4.11 2.05, 3.92 2.39, 3.66 2.94 C3.4 3.49, 2.79 4.52, 2.44 4.88 C2.09 5.24, 1.99 5.33, 1.56 5.11 C1.14 4.89, 0.2 4.01, -0.12 3.54 C-0.43 3.07, -0.42 2.8, -0.31 2.28 C-0.2 1.76, 0.11 0.88, 0.52 0.42 C0.92 -0.04, 1.98 -0.4, 2.14 -0.47 C2.29 -0.54, 1.45 -0.08, 1.46 0" stroke="none" stroke-width="0" fill="#1e1e1e"></path><path d="M2.06 -0.28 C2.48 -0.26, 2.89 0.07, 3.21 0.48 C3.52 0.88, 3.9 1.58, 3.97 2.14 C4.04 2.71, 3.93 3.46, 3.65 3.89 C3.36 4.31, 2.68 4.6, 2.27 4.7 C1.86 4.8, 1.55 4.66, 1.18 4.46 C0.81 4.27, 0.26 3.93, 0.05 3.52 C-0.16 3.11, -0.23 2.54, -0.09 1.99 C0.06 1.44, 0.51 0.58, 0.91 0.22 C1.3 -0.15, 2 -0.15, 2.26 -0.2 C2.53 -0.25, 2.57 -0.15, 2.5 -0.09 M1.61 -0.05 C1.96 -0.15, 2.44 0.13, 2.88 0.52 C3.32 0.91, 4.18 1.84, 4.23 2.29 C4.29 2.74, 3.52 2.8, 3.21 3.21 C2.89 3.63, 2.68 4.59, 2.35 4.77 C2.01 4.94, 1.57 4.39, 1.21 4.28 C0.85 4.16, 0.34 4.38, 0.21 4.07 C0.07 3.76, 0.38 3.06, 0.39 2.42 C0.4 1.78, 0.02 0.69, 0.27 0.22 C0.51 -0.24, 1.63 -0.35, 1.86 -0.39 C2.09 -0.43, 1.59 -0.04, 1.65 -0.01" stroke="#1e1e1e" stroke-width="2" fill="none"></path></g><g stroke-linecap="round" transform="translate(25.14535577526948 58.459889987626525) rotate(340.81958281844464 2.44168513476734 2.1041939340009748)"><path d="M2.17 -0.21 C2.59 -0.21, 3.19 0.14, 3.65 0.49 C4.11 0.84, 4.69 1.41, 4.91 1.89 C5.12 2.36, 5.23 2.93, 4.96 3.33 C4.69 3.72, 3.81 4.17, 3.29 4.25 C2.77 4.33, 2.37 4.01, 1.84 3.8 C1.3 3.59, 0.38 3.29, 0.11 3 C-0.16 2.7, 0.13 2.41, 0.21 2.05 C0.28 1.68, 0.17 1.19, 0.57 0.8 C0.96 0.42, 2.27 -0.12, 2.59 -0.26 C2.91 -0.39, 2.51 -0.08, 2.5 -0.02 M2.49 -0.37 C3.04 -0.43, 3.82 -0.08, 4.18 0.36 C4.53 0.81, 4.56 1.8, 4.62 2.3 C4.69 2.8, 4.88 3.05, 4.58 3.38 C4.28 3.71, 3.42 4.21, 2.84 4.28 C2.25 4.34, 1.46 3.99, 1.05 3.79 C0.64 3.59, 0.55 3.43, 0.39 3.08 C0.22 2.73, -0.05 2.13, 0.08 1.67 C0.2 1.2, 0.77 0.63, 1.13 0.29 C1.49 -0.04, 2.01 -0.23, 2.22 -0.33 C2.42 -0.43, 2.31 -0.48, 2.35 -0.33" stroke="none" stroke-width="0" fill="#1e1e1e"></path><path d="M2.47 -0.24 C2.87 -0.27, 3.44 0.21, 3.8 0.51 C4.16 0.8, 4.46 1.07, 4.61 1.55 C4.76 2.03, 4.95 3.01, 4.72 3.4 C4.49 3.79, 3.82 3.83, 3.24 3.89 C2.65 3.96, 1.75 3.95, 1.21 3.79 C0.68 3.62, 0.27 3.3, 0.03 2.9 C-0.22 2.51, -0.4 1.85, -0.25 1.4 C-0.1 0.95, 0.44 0.45, 0.91 0.2 C1.38 -0.04, 2.26 -0.05, 2.57 -0.05 C2.88 -0.05, 2.8 0.16, 2.8 0.21 M2.15 -0.14 C2.57 -0.19, 3.43 0.28, 3.95 0.61 C4.47 0.95, 5.19 1.45, 5.25 1.88 C5.32 2.3, 4.67 2.81, 4.33 3.15 C4 3.5, 3.69 3.78, 3.24 3.92 C2.8 4.06, 2.11 4.19, 1.67 4 C1.23 3.81, 0.9 3.22, 0.6 2.78 C0.31 2.33, -0.16 1.75, -0.11 1.31 C-0.06 0.87, 0.49 0.34, 0.92 0.13 C1.35 -0.08, 2.24 0, 2.48 0.04 C2.72 0.08, 2.44 0.41, 2.37 0.37" stroke="#1e1e1e" stroke-width="2" fill="none"></path></g></svg>